<mxfile host="app.diagrams.net" modified="2023-12-13T09:57:45.558Z" agent="Mozilla/5.0 (X11; Linux x86_64) AppleWebKit/537.36 (KHTML, like Gecko) Chrome/112.0.0.0 Safari/537.36" etag="EsxqJ7WxHqjXNgeBH-4x" version="22.1.8" type="device">
  <diagram name="Page-1" id="c7488fd3-1785-93aa-aadb-54a6760d102a">
    <mxGraphModel dx="1259" dy="678" grid="1" gridSize="10" guides="1" tooltips="1" connect="1" arrows="1" fold="1" page="1" pageScale="1" pageWidth="1100" pageHeight="850" background="none" math="0" shadow="0">
      <root>
        <mxCell id="0" />
        <mxCell id="1" parent="0" />
        <mxCell id="2b4e8129b02d487f-1" value="&lt;font style=&quot;font-size: 18px;&quot;&gt;Full stack&lt;/font&gt;" style="swimlane;html=1;childLayout=stackLayout;horizontal=1;startSize=20;horizontalStack=0;rounded=0;shadow=0;labelBackgroundColor=none;strokeWidth=1;fontFamily=Verdana;fontSize=8;align=center;" parent="1" vertex="1">
          <mxGeometry x="180" y="40" width="810" height="790" as="geometry" />
        </mxCell>
        <mxCell id="2b4e8129b02d487f-2" value="Application layer" style="swimlane;html=1;startSize=20;horizontal=0;" parent="2b4e8129b02d487f-1" vertex="1">
          <mxGeometry y="20" width="810" height="150" as="geometry" />
        </mxCell>
        <mxCell id="9KNFPWW-fXlkKjVraPiz-109" style="edgeStyle=orthogonalEdgeStyle;rounded=0;orthogonalLoop=1;jettySize=auto;html=1;exitX=0.5;exitY=1;exitDx=0;exitDy=0;fontSize=9;startArrow=classic;startFill=1;" parent="2b4e8129b02d487f-2" source="2b4e8129b02d487f-9" edge="1">
          <mxGeometry relative="1" as="geometry">
            <mxPoint x="420" y="180" as="targetPoint" />
          </mxGeometry>
        </mxCell>
        <mxCell id="2b4e8129b02d487f-9" value="&lt;font style=&quot;font-size: 11px;&quot;&gt;WebApp&lt;/font&gt;" style="rounded=1;whiteSpace=wrap;html=1;shadow=0;labelBackgroundColor=none;strokeWidth=1;fontFamily=Verdana;fontSize=8;align=center;" parent="2b4e8129b02d487f-2" vertex="1">
          <mxGeometry x="385" y="29.99999999999997" width="70" height="37" as="geometry" />
        </mxCell>
        <mxCell id="2b4e8129b02d487f-23" style="edgeStyle=orthogonalEdgeStyle;rounded=0;html=1;labelBackgroundColor=none;startArrow=none;startFill=0;startSize=5;endArrow=classicThin;endFill=1;endSize=5;jettySize=auto;orthogonalLoop=1;strokeWidth=1;fontFamily=Verdana;fontSize=8" parent="2b4e8129b02d487f-2" edge="1">
          <mxGeometry relative="1" as="geometry">
            <mxPoint x="580" y="75" as="sourcePoint" />
          </mxGeometry>
        </mxCell>
        <mxCell id="9KNFPWW-fXlkKjVraPiz-25" value="Process centric layer" style="swimlane;html=1;startSize=20;horizontal=0;" parent="2b4e8129b02d487f-1" vertex="1">
          <mxGeometry y="170" width="810" height="200" as="geometry" />
        </mxCell>
        <mxCell id="9KNFPWW-fXlkKjVraPiz-29" style="edgeStyle=orthogonalEdgeStyle;rounded=0;html=1;labelBackgroundColor=none;startArrow=none;startFill=0;startSize=5;endArrow=classicThin;endFill=1;endSize=5;jettySize=auto;orthogonalLoop=1;strokeWidth=1;fontFamily=Verdana;fontSize=8" parent="9KNFPWW-fXlkKjVraPiz-25" edge="1">
          <mxGeometry relative="1" as="geometry">
            <mxPoint x="580" y="75" as="sourcePoint" />
          </mxGeometry>
        </mxCell>
        <mxCell id="9KNFPWW-fXlkKjVraPiz-30" value="&lt;span style=&quot;font-size: 11px;&quot;&gt;Registration&lt;/span&gt;" style="rounded=1;whiteSpace=wrap;html=1;shadow=0;labelBackgroundColor=none;strokeWidth=1;fontFamily=Verdana;fontSize=8;align=center;" parent="9KNFPWW-fXlkKjVraPiz-25" vertex="1">
          <mxGeometry x="110" y="30" width="70" height="37" as="geometry" />
        </mxCell>
        <mxCell id="9KNFPWW-fXlkKjVraPiz-62" value="&lt;span style=&quot;font-size: 11px;&quot;&gt;Songs library&lt;/span&gt;" style="rounded=1;whiteSpace=wrap;html=1;shadow=0;labelBackgroundColor=none;strokeWidth=1;fontFamily=Verdana;fontSize=8;align=center;" parent="9KNFPWW-fXlkKjVraPiz-25" vertex="1">
          <mxGeometry x="370" y="33" width="100" height="37" as="geometry" />
        </mxCell>
        <mxCell id="9KNFPWW-fXlkKjVraPiz-67" value="&lt;font style=&quot;font-size: 11px;&quot;&gt;Song Analyzer&lt;/font&gt;" style="rounded=1;whiteSpace=wrap;html=1;shadow=0;labelBackgroundColor=none;strokeWidth=1;fontFamily=Verdana;fontSize=8;align=center;" parent="9KNFPWW-fXlkKjVraPiz-25" vertex="1">
          <mxGeometry x="610" y="30" width="70" height="37" as="geometry" />
        </mxCell>
        <mxCell id="2b4e8129b02d487f-3" value="Business layer&lt;br&gt;" style="swimlane;html=1;startSize=20;horizontal=0;" parent="2b4e8129b02d487f-1" vertex="1">
          <mxGeometry y="370" width="810" height="150" as="geometry" />
        </mxCell>
        <mxCell id="9KNFPWW-fXlkKjVraPiz-31" value="&lt;font style=&quot;font-size: 11px;&quot;&gt;Auth&lt;/font&gt;" style="rounded=1;whiteSpace=wrap;html=1;shadow=0;labelBackgroundColor=none;strokeWidth=1;fontFamily=Verdana;fontSize=8;align=center;" parent="2b4e8129b02d487f-3" vertex="1">
          <mxGeometry x="50" y="56.5" width="70" height="37" as="geometry" />
        </mxCell>
        <mxCell id="9KNFPWW-fXlkKjVraPiz-32" value="&lt;font style=&quot;font-size: 11px;&quot;&gt;Music Scraper&lt;/font&gt;" style="rounded=1;whiteSpace=wrap;html=1;shadow=0;labelBackgroundColor=none;strokeWidth=1;fontFamily=Verdana;fontSize=8;align=center;" parent="2b4e8129b02d487f-3" vertex="1">
          <mxGeometry x="330" y="56.5" width="70" height="37" as="geometry" />
        </mxCell>
        <mxCell id="9KNFPWW-fXlkKjVraPiz-33" value="&lt;span style=&quot;font-size: 11px;&quot;&gt;Track splitter&lt;/span&gt;" style="rounded=1;whiteSpace=wrap;html=1;shadow=0;labelBackgroundColor=none;strokeWidth=1;fontFamily=Verdana;fontSize=8;align=center;" parent="2b4e8129b02d487f-3" vertex="1">
          <mxGeometry x="610" y="56.5" width="70" height="37" as="geometry" />
        </mxCell>
        <mxCell id="9KNFPWW-fXlkKjVraPiz-56" value="&lt;font style=&quot;font-size: 11px;&quot;&gt;Recommendation System&lt;/font&gt;" style="rounded=1;whiteSpace=wrap;html=1;shadow=0;labelBackgroundColor=none;strokeWidth=1;fontFamily=Verdana;fontSize=8;align=center;" parent="2b4e8129b02d487f-3" vertex="1">
          <mxGeometry x="460" y="56.5" width="80" height="37" as="geometry" />
        </mxCell>
        <mxCell id="9KNFPWW-fXlkKjVraPiz-60" value="&lt;span style=&quot;font-size: 11px;&quot;&gt;DB&lt;br&gt;Controller&lt;/span&gt;" style="rounded=1;whiteSpace=wrap;html=1;shadow=0;labelBackgroundColor=none;strokeWidth=1;fontFamily=Verdana;fontSize=8;align=center;" parent="2b4e8129b02d487f-3" vertex="1">
          <mxGeometry x="180" y="56.5" width="70" height="37" as="geometry" />
        </mxCell>
        <mxCell id="2b4e8129b02d487f-4" value="Adapter layer" style="swimlane;html=1;startSize=20;horizontal=0;" parent="2b4e8129b02d487f-1" vertex="1">
          <mxGeometry y="520" width="810" height="150" as="geometry" />
        </mxCell>
        <mxCell id="2b4e8129b02d487f-29" value="Yes" style="edgeStyle=orthogonalEdgeStyle;rounded=0;html=1;entryX=0;entryY=0.5;labelBackgroundColor=none;startArrow=none;startFill=0;startSize=5;endArrow=classicThin;endFill=1;endSize=5;jettySize=auto;orthogonalLoop=1;strokeWidth=1;fontFamily=Verdana;fontSize=8" parent="2b4e8129b02d487f-4" edge="1">
          <mxGeometry x="-0.5006" y="6" relative="1" as="geometry">
            <mxPoint as="offset" />
            <mxPoint x="360" y="75.5" as="sourcePoint" />
            <Array as="points">
              <mxPoint x="380" y="76" />
              <mxPoint x="380" y="76" />
            </Array>
          </mxGeometry>
        </mxCell>
        <mxCell id="9KNFPWW-fXlkKjVraPiz-34" value="&lt;font style=&quot;font-size: 11px;&quot;&gt;Google&lt;/font&gt;" style="rounded=1;whiteSpace=wrap;html=1;shadow=0;labelBackgroundColor=none;strokeWidth=1;fontFamily=Verdana;fontSize=8;align=center;" parent="2b4e8129b02d487f-4" vertex="1">
          <mxGeometry x="50" y="60" width="70" height="37" as="geometry" />
        </mxCell>
        <mxCell id="9KNFPWW-fXlkKjVraPiz-35" value="&lt;span style=&quot;font-size: 11px;&quot;&gt;Mongoose&lt;/span&gt;" style="rounded=1;whiteSpace=wrap;html=1;shadow=0;labelBackgroundColor=none;strokeWidth=1;fontFamily=Verdana;fontSize=8;align=center;" parent="2b4e8129b02d487f-4" vertex="1">
          <mxGeometry x="180" y="60" width="70" height="37" as="geometry" />
        </mxCell>
        <mxCell id="9KNFPWW-fXlkKjVraPiz-37" value="&lt;span style=&quot;font-size: 11px;&quot;&gt;YoutubeDL&lt;/span&gt;" style="rounded=1;whiteSpace=wrap;html=1;shadow=0;labelBackgroundColor=none;strokeWidth=1;fontFamily=Verdana;fontSize=8;align=center;" parent="2b4e8129b02d487f-4" vertex="1">
          <mxGeometry x="330" y="60" width="70" height="37" as="geometry" />
        </mxCell>
        <mxCell id="9KNFPWW-fXlkKjVraPiz-48" value="&lt;span style=&quot;font-size: 11px;&quot;&gt;SpleeterLIB&lt;/span&gt;" style="rounded=1;whiteSpace=wrap;html=1;shadow=0;labelBackgroundColor=none;strokeWidth=1;fontFamily=Verdana;fontSize=8;align=center;" parent="2b4e8129b02d487f-4" vertex="1">
          <mxGeometry x="610" y="60" width="70" height="37" as="geometry" />
        </mxCell>
        <mxCell id="9KNFPWW-fXlkKjVraPiz-50" value="&lt;span style=&quot;font-size: 11px;&quot;&gt;Maroofy API&lt;/span&gt;" style="rounded=1;whiteSpace=wrap;html=1;shadow=0;labelBackgroundColor=none;strokeWidth=1;fontFamily=Verdana;fontSize=8;align=center;" parent="2b4e8129b02d487f-4" vertex="1">
          <mxGeometry x="440" y="60" width="120" height="37" as="geometry" />
        </mxCell>
        <mxCell id="9KNFPWW-fXlkKjVraPiz-1" value="Data layer" style="swimlane;html=1;startSize=20;horizontal=0;" parent="2b4e8129b02d487f-1" vertex="1">
          <mxGeometry y="670" width="810" height="120" as="geometry" />
        </mxCell>
        <mxCell id="9KNFPWW-fXlkKjVraPiz-36" value="&lt;span style=&quot;font-size: 11px;&quot;&gt;Youtube&lt;/span&gt;" style="rounded=1;whiteSpace=wrap;html=1;shadow=0;labelBackgroundColor=none;strokeWidth=1;fontFamily=Verdana;fontSize=8;align=center;" parent="9KNFPWW-fXlkKjVraPiz-1" vertex="1">
          <mxGeometry x="330" y="56.5" width="70" height="37" as="geometry" />
        </mxCell>
        <mxCell id="9KNFPWW-fXlkKjVraPiz-38" value="MongoDB" style="shape=cylinder3;whiteSpace=wrap;html=1;boundedLbl=1;backgroundOutline=1;size=15;fontSize=11;" parent="9KNFPWW-fXlkKjVraPiz-1" vertex="1">
          <mxGeometry x="185" y="41" width="60" height="55" as="geometry" />
        </mxCell>
        <mxCell id="9KNFPWW-fXlkKjVraPiz-52" value="&lt;span style=&quot;font-size: 11px;&quot;&gt;Spleeter&lt;/span&gt;" style="rounded=1;whiteSpace=wrap;html=1;shadow=0;labelBackgroundColor=none;strokeWidth=1;fontFamily=Verdana;fontSize=8;align=center;" parent="9KNFPWW-fXlkKjVraPiz-1" vertex="1">
          <mxGeometry x="610" y="56.5" width="70" height="37" as="geometry" />
        </mxCell>
        <mxCell id="9KNFPWW-fXlkKjVraPiz-39" value="" style="edgeStyle=orthogonalEdgeStyle;rounded=0;orthogonalLoop=1;jettySize=auto;html=1;fontSize=11;startArrow=classic;startFill=1;" parent="2b4e8129b02d487f-1" source="9KNFPWW-fXlkKjVraPiz-35" target="9KNFPWW-fXlkKjVraPiz-38" edge="1">
          <mxGeometry relative="1" as="geometry" />
        </mxCell>
        <mxCell id="9KNFPWW-fXlkKjVraPiz-40" value="" style="edgeStyle=orthogonalEdgeStyle;rounded=0;orthogonalLoop=1;jettySize=auto;html=1;fontSize=11;startArrow=classic;startFill=1;" parent="2b4e8129b02d487f-1" source="9KNFPWW-fXlkKjVraPiz-37" target="9KNFPWW-fXlkKjVraPiz-36" edge="1">
          <mxGeometry relative="1" as="geometry" />
        </mxCell>
        <mxCell id="9KNFPWW-fXlkKjVraPiz-41" value="" style="edgeStyle=orthogonalEdgeStyle;rounded=0;orthogonalLoop=1;jettySize=auto;html=1;fontSize=11;startArrow=classic;startFill=1;" parent="2b4e8129b02d487f-1" source="9KNFPWW-fXlkKjVraPiz-32" target="9KNFPWW-fXlkKjVraPiz-37" edge="1">
          <mxGeometry relative="1" as="geometry">
            <Array as="points">
              <mxPoint x="365" y="430" />
              <mxPoint x="365" y="430" />
            </Array>
          </mxGeometry>
        </mxCell>
        <mxCell id="9KNFPWW-fXlkKjVraPiz-49" value="" style="edgeStyle=orthogonalEdgeStyle;rounded=0;orthogonalLoop=1;jettySize=auto;html=1;fontSize=11;startArrow=classic;startFill=1;" parent="2b4e8129b02d487f-1" source="9KNFPWW-fXlkKjVraPiz-33" target="9KNFPWW-fXlkKjVraPiz-48" edge="1">
          <mxGeometry relative="1" as="geometry" />
        </mxCell>
        <mxCell id="9KNFPWW-fXlkKjVraPiz-53" value="" style="edgeStyle=orthogonalEdgeStyle;rounded=0;orthogonalLoop=1;jettySize=auto;html=1;fontSize=11;startArrow=classic;startFill=1;" parent="2b4e8129b02d487f-1" source="9KNFPWW-fXlkKjVraPiz-52" target="9KNFPWW-fXlkKjVraPiz-48" edge="1">
          <mxGeometry relative="1" as="geometry" />
        </mxCell>
        <mxCell id="9KNFPWW-fXlkKjVraPiz-58" value="" style="edgeStyle=orthogonalEdgeStyle;rounded=0;orthogonalLoop=1;jettySize=auto;html=1;fontSize=11;startArrow=classic;startFill=1;" parent="2b4e8129b02d487f-1" source="9KNFPWW-fXlkKjVraPiz-56" target="9KNFPWW-fXlkKjVraPiz-50" edge="1">
          <mxGeometry relative="1" as="geometry" />
        </mxCell>
        <mxCell id="9KNFPWW-fXlkKjVraPiz-59" value="" style="edgeStyle=orthogonalEdgeStyle;rounded=0;orthogonalLoop=1;jettySize=auto;html=1;fontSize=11;startArrow=classic;startFill=1;" parent="2b4e8129b02d487f-1" source="9KNFPWW-fXlkKjVraPiz-31" target="9KNFPWW-fXlkKjVraPiz-34" edge="1">
          <mxGeometry relative="1" as="geometry" />
        </mxCell>
        <mxCell id="9KNFPWW-fXlkKjVraPiz-61" value="" style="edgeStyle=orthogonalEdgeStyle;rounded=0;orthogonalLoop=1;jettySize=auto;html=1;fontSize=11;startArrow=classic;startFill=1;" parent="2b4e8129b02d487f-1" source="9KNFPWW-fXlkKjVraPiz-60" target="9KNFPWW-fXlkKjVraPiz-35" edge="1">
          <mxGeometry relative="1" as="geometry" />
        </mxCell>
        <mxCell id="9KNFPWW-fXlkKjVraPiz-98" style="edgeStyle=orthogonalEdgeStyle;rounded=0;orthogonalLoop=1;jettySize=auto;html=1;exitX=0.25;exitY=1;exitDx=0;exitDy=0;fontSize=9;startArrow=classic;startFill=1;fillColor=#dae8fc;strokeColor=#6c8ebf;" parent="2b4e8129b02d487f-1" source="9KNFPWW-fXlkKjVraPiz-30" target="9KNFPWW-fXlkKjVraPiz-31" edge="1">
          <mxGeometry relative="1" as="geometry">
            <Array as="points">
              <mxPoint x="128" y="260" />
              <mxPoint x="60" y="260" />
            </Array>
          </mxGeometry>
        </mxCell>
        <mxCell id="9KNFPWW-fXlkKjVraPiz-99" style="edgeStyle=orthogonalEdgeStyle;rounded=0;orthogonalLoop=1;jettySize=auto;html=1;exitX=0.75;exitY=1;exitDx=0;exitDy=0;fontSize=9;startArrow=classic;startFill=1;fillColor=#dae8fc;strokeColor=#6c8ebf;" parent="2b4e8129b02d487f-1" source="9KNFPWW-fXlkKjVraPiz-30" target="9KNFPWW-fXlkKjVraPiz-60" edge="1">
          <mxGeometry relative="1" as="geometry">
            <Array as="points">
              <mxPoint x="162" y="260" />
              <mxPoint x="200" y="260" />
            </Array>
          </mxGeometry>
        </mxCell>
        <mxCell id="9KNFPWW-fXlkKjVraPiz-100" style="edgeStyle=orthogonalEdgeStyle;rounded=0;orthogonalLoop=1;jettySize=auto;html=1;entryX=0.5;entryY=0;entryDx=0;entryDy=0;fontSize=9;startArrow=classic;startFill=1;fillColor=#d80073;strokeColor=#A50040;" parent="2b4e8129b02d487f-1" target="9KNFPWW-fXlkKjVraPiz-31" edge="1">
          <mxGeometry relative="1" as="geometry">
            <mxPoint x="390" y="240" as="sourcePoint" />
            <Array as="points">
              <mxPoint x="390" y="290" />
              <mxPoint x="85" y="290" />
            </Array>
          </mxGeometry>
        </mxCell>
        <mxCell id="9KNFPWW-fXlkKjVraPiz-101" style="edgeStyle=orthogonalEdgeStyle;rounded=0;orthogonalLoop=1;jettySize=auto;html=1;exitX=0.25;exitY=1;exitDx=0;exitDy=0;entryX=0.75;entryY=0;entryDx=0;entryDy=0;fontSize=9;startArrow=classic;startFill=1;fillColor=#ffe6cc;strokeColor=#d79b00;" parent="2b4e8129b02d487f-1" source="9KNFPWW-fXlkKjVraPiz-67" target="9KNFPWW-fXlkKjVraPiz-31" edge="1">
          <mxGeometry relative="1" as="geometry">
            <Array as="points">
              <mxPoint x="628" y="340" />
              <mxPoint x="102" y="340" />
            </Array>
          </mxGeometry>
        </mxCell>
        <mxCell id="9KNFPWW-fXlkKjVraPiz-102" style="edgeStyle=orthogonalEdgeStyle;rounded=0;orthogonalLoop=1;jettySize=auto;html=1;exitX=0.75;exitY=1;exitDx=0;exitDy=0;entryX=0.75;entryY=0;entryDx=0;entryDy=0;fontSize=9;startArrow=classic;startFill=1;fillColor=#ffe6cc;strokeColor=#d79b00;" parent="2b4e8129b02d487f-1" source="9KNFPWW-fXlkKjVraPiz-67" target="9KNFPWW-fXlkKjVraPiz-33" edge="1">
          <mxGeometry relative="1" as="geometry" />
        </mxCell>
        <mxCell id="9KNFPWW-fXlkKjVraPiz-104" style="edgeStyle=orthogonalEdgeStyle;rounded=0;orthogonalLoop=1;jettySize=auto;html=1;exitX=0.5;exitY=1;exitDx=0;exitDy=0;entryX=0.75;entryY=0;entryDx=0;entryDy=0;fontSize=9;startArrow=classic;startFill=1;fillColor=#ffe6cc;strokeColor=#d79b00;" parent="2b4e8129b02d487f-1" source="9KNFPWW-fXlkKjVraPiz-67" target="9KNFPWW-fXlkKjVraPiz-60" edge="1">
          <mxGeometry relative="1" as="geometry">
            <Array as="points">
              <mxPoint x="645" y="350" />
              <mxPoint x="232" y="350" />
            </Array>
          </mxGeometry>
        </mxCell>
        <mxCell id="9KNFPWW-fXlkKjVraPiz-105" style="edgeStyle=orthogonalEdgeStyle;rounded=0;orthogonalLoop=1;jettySize=auto;html=1;entryX=0.5;entryY=0;entryDx=0;entryDy=0;fontSize=9;startArrow=classic;startFill=1;fillColor=#d80073;strokeColor=#A50040;" parent="2b4e8129b02d487f-1" target="9KNFPWW-fXlkKjVraPiz-60" edge="1">
          <mxGeometry relative="1" as="geometry">
            <mxPoint x="410" y="240" as="sourcePoint" />
            <Array as="points">
              <mxPoint x="410" y="300" />
              <mxPoint x="215" y="300" />
            </Array>
          </mxGeometry>
        </mxCell>
        <mxCell id="9KNFPWW-fXlkKjVraPiz-106" style="edgeStyle=orthogonalEdgeStyle;rounded=0;orthogonalLoop=1;jettySize=auto;html=1;entryX=0.5;entryY=0;entryDx=0;entryDy=0;fontSize=9;startArrow=classic;startFill=1;fillColor=#d80073;strokeColor=#A50040;" parent="2b4e8129b02d487f-1" target="9KNFPWW-fXlkKjVraPiz-32" edge="1">
          <mxGeometry relative="1" as="geometry">
            <mxPoint x="430" y="240" as="sourcePoint" />
            <Array as="points">
              <mxPoint x="430" y="310" />
              <mxPoint x="365" y="310" />
            </Array>
          </mxGeometry>
        </mxCell>
        <mxCell id="9KNFPWW-fXlkKjVraPiz-107" style="edgeStyle=orthogonalEdgeStyle;rounded=0;orthogonalLoop=1;jettySize=auto;html=1;entryX=0.5;entryY=0;entryDx=0;entryDy=0;fontSize=9;startArrow=classic;startFill=1;fillColor=#d80073;strokeColor=#A50040;" parent="2b4e8129b02d487f-1" target="9KNFPWW-fXlkKjVraPiz-56" edge="1">
          <mxGeometry relative="1" as="geometry">
            <mxPoint x="450" y="240" as="sourcePoint" />
            <Array as="points">
              <mxPoint x="450" y="310" />
              <mxPoint x="500" y="310" />
            </Array>
          </mxGeometry>
        </mxCell>
        <mxCell id="9KNFPWW-fXlkKjVraPiz-108" style="edgeStyle=orthogonalEdgeStyle;rounded=0;orthogonalLoop=1;jettySize=auto;html=1;exitX=0.25;exitY=1;exitDx=0;exitDy=0;fontSize=9;startArrow=classic;startFill=1;" parent="2b4e8129b02d487f-1" source="2b4e8129b02d487f-9" target="9KNFPWW-fXlkKjVraPiz-30" edge="1">
          <mxGeometry relative="1" as="geometry" />
        </mxCell>
        <mxCell id="9KNFPWW-fXlkKjVraPiz-110" style="edgeStyle=orthogonalEdgeStyle;rounded=0;orthogonalLoop=1;jettySize=auto;html=1;exitX=0.75;exitY=1;exitDx=0;exitDy=0;entryX=0.5;entryY=0;entryDx=0;entryDy=0;fontSize=9;startArrow=classic;startFill=1;" parent="2b4e8129b02d487f-1" source="2b4e8129b02d487f-9" target="9KNFPWW-fXlkKjVraPiz-67" edge="1">
          <mxGeometry relative="1" as="geometry" />
        </mxCell>
      </root>
    </mxGraphModel>
  </diagram>
</mxfile>
